<?xml version="1.0" encoding="UTF-8"?>
<svg xmlns="http://www.w3.org/2000/svg" version="1.1" viewBox="0 0 500 500">
  <!-- Generator: Adobe Illustrator 30.3.0, SVG Export Plug-In . SVG Version: 2.1.3 Build 182)  -->
  <defs>
    <style>
      .st0 {
        letter-spacing: .1em;
      }

      .st0, .st1 {
        font-family: Bungee-Regular, Bungee;
        font-size: 15.79px;
      }

      .st2 {
        fill: #4e5150;
      }

      .st3 {
        fill: #f2f2f2;
      }

      .st4 {
        stroke: #ce5252;
        stroke-width: 4.79px;
      }

      .st4, .st5 {
        fill: none;
        stroke-miterlimit: 10;
      }

      .st6 {
        fill: #444;
      }

      .st7, .st8 {
        fill: #ce5252;
      }

      .st9 {
        fill: #45bfa8;
      }

      .st10 {
        fill: #b6c1bf;
      }

      .st5 {
        stroke: #000;
        stroke-width: 1.19px;
      }

      .st11 {
        fill: #aaa;
      }

      .st12 {
        font-size: 40.8px;
        letter-spacing: .1em;
      }

      .st12, .st8 {
        font-family: PhosphateSolid, PhosphateSolid;
      }

      .st1 {
        letter-spacing: .1em;
      }

      .st13 {
        fill: #e6e6e6;
      }

      .st8 {
        font-size: 43.14px;
        letter-spacing: .1em;
      }
    </style>
  </defs>
  <g id="BACKGROUND">
    <g>
      <path class="st9" d="M0,0"/>
      <line class="st9" x1="500" y1="500" y2="500"/>
    </g>
  </g>
  <g id="OBJECTS">
    <g>
      <rect class="st11" x="56.14" y="64.66" width="349.28" height="38.61" rx="12" ry="12"/>
      <rect class="st6" x="66.16" y="78.44" width="329.23" height="11.05" rx="5.37" ry="5.37"/>
      <path class="st3" d="M92.15,83.97c16.69,0,35.76,14.3,35.76,52.45v226.48c0,34.57,20.26,52.45,40.53,52.45h220.52V138.8c0-36.95-20.26-54.83-51.26-54.83H92.15Z"/>
      <text class="st0" transform="translate(195.46 132.2)"><tspan x="0" y="0">EASY 63062</tspan></text>
      <text class="st12" transform="translate(188.1 168.27)"><tspan x="0" y="0">RECIBO</tspan></text>
      <text class="st1" transform="translate(152.78 313.56)"><tspan x="0" y="0">TOTAL</tspan></text>
      <line class="st5" x1="152.78" y1="289.44" x2="364.92" y2="289.44"/>
      <rect class="st10" x="152.78" y="204.2" width="109.89" height="9.22"/>
      <rect class="st10" x="152.78" y="220.18" width="109.89" height="9.22"/>
      <rect class="st10" x="152.78" y="236.15" width="109.89" height="9.22"/>
      <rect class="st10" x="152.78" y="252.13" width="109.89" height="9.22"/>
      <rect class="st10" x="152.78" y="268.11" width="109.89" height="9.22"/>
      <rect class="st10" x="326.46" y="204.2" width="38.46" height="9.22"/>
      <rect class="st10" x="326.46" y="220.18" width="38.46" height="9.22"/>
      <rect class="st10" x="326.46" y="236.15" width="38.46" height="9.22"/>
      <rect class="st10" x="326.46" y="252.13" width="38.46" height="9.22"/>
      <rect class="st10" x="326.46" y="268.11" width="38.46" height="9.22"/>
      <rect class="st7" x="326.46" y="304.83" width="38.46" height="9.22"/>
      <g>
        <path d="M273.36,212c0,1.04-.84,1.88-1.88,1.88s-1.88-.84-1.88-1.88.84-1.88,1.88-1.88,1.88.84,1.88,1.88Z"/>
        <path d="M282.56,212c0,1.04-.84,1.88-1.88,1.88s-1.88-.84-1.88-1.88.84-1.88,1.88-1.88,1.88.84,1.88,1.88Z"/>
        <path d="M291.75,212c0,1.04-.84,1.88-1.88,1.88s-1.88-.84-1.88-1.88.84-1.88,1.88-1.88,1.88.84,1.88,1.88Z"/>
        <path d="M300.95,212c0,1.04-.84,1.88-1.88,1.88s-1.88-.84-1.88-1.88.84-1.88,1.88-1.88,1.88.84,1.88,1.88Z"/>
        <path d="M319.35,212c0,1.04-.84,1.88-1.88,1.88s-1.88-.84-1.88-1.88.84-1.88,1.88-1.88,1.88.84,1.88,1.88Z"/>
        <path d="M310.15,212c0,1.04-.84,1.88-1.88,1.88s-1.88-.84-1.88-1.88.84-1.88,1.88-1.88,1.88.84,1.88,1.88Z"/>
      </g>
      <g>
        <path d="M273.36,227.86c0,1.04-.84,1.88-1.88,1.88s-1.88-.84-1.88-1.88.84-1.88,1.88-1.88,1.88.84,1.88,1.88Z"/>
        <path d="M282.56,227.86c0,1.04-.84,1.88-1.88,1.88s-1.88-.84-1.88-1.88.84-1.88,1.88-1.88,1.88.84,1.88,1.88Z"/>
        <path d="M291.75,227.86c0,1.04-.84,1.88-1.88,1.88s-1.88-.84-1.88-1.88.84-1.88,1.88-1.88,1.88.84,1.88,1.88Z"/>
        <path d="M300.95,227.86c0,1.04-.84,1.88-1.88,1.88s-1.88-.84-1.88-1.88.84-1.88,1.88-1.88,1.88.84,1.88,1.88Z"/>
        <path d="M319.35,227.86c0,1.04-.84,1.88-1.88,1.88s-1.88-.84-1.88-1.88.84-1.88,1.88-1.88,1.88.84,1.88,1.88Z"/>
        <path d="M310.15,227.86c0,1.04-.84,1.88-1.88,1.88s-1.88-.84-1.88-1.88.84-1.88,1.88-1.88,1.88.84,1.88,1.88Z"/>
      </g>
      <g>
        <path d="M225.49,311.69c0,1.04-.84,1.88-1.88,1.88s-1.88-.84-1.88-1.88.84-1.88,1.88-1.88,1.88.84,1.88,1.88Z"/>
        <path d="M234.69,311.69c0,1.04-.84,1.88-1.88,1.88s-1.88-.84-1.88-1.88.84-1.88,1.88-1.88,1.88.84,1.88,1.88Z"/>
        <path d="M243.89,311.69c0,1.04-.84,1.88-1.88,1.88s-1.88-.84-1.88-1.88.84-1.88,1.88-1.88,1.88.84,1.88,1.88Z"/>
        <path d="M253.09,311.69c0,1.04-.84,1.88-1.88,1.88s-1.88-.84-1.88-1.88.84-1.88,1.88-1.88,1.88.84,1.88,1.88Z"/>
        <path d="M271.48,311.69c0,1.04-.84,1.88-1.88,1.88s-1.88-.84-1.88-1.88.84-1.88,1.88-1.88,1.88.84,1.88,1.88Z"/>
        <path d="M262.28,311.69c0,1.04-.84,1.88-1.88,1.88s-1.88-.84-1.88-1.88.84-1.88,1.88-1.88,1.88.84,1.88,1.88Z"/>
      </g>
      <g>
        <path d="M282.56,311.69c0,1.04-.84,1.88-1.88,1.88s-1.88-.84-1.88-1.88.84-1.88,1.88-1.88,1.88.84,1.88,1.88Z"/>
        <path d="M291.75,311.69c0,1.04-.84,1.88-1.88,1.88s-1.88-.84-1.88-1.88.84-1.88,1.88-1.88,1.88.84,1.88,1.88Z"/>
        <path d="M300.95,311.69c0,1.04-.84,1.88-1.88,1.88s-1.88-.84-1.88-1.88.84-1.88,1.88-1.88,1.88.84,1.88,1.88Z"/>
        <path d="M310.15,311.69c0,1.04-.84,1.88-1.88,1.88s-1.88-.84-1.88-1.88.84-1.88,1.88-1.88,1.88.84,1.88,1.88Z"/>
        <path d="M319.35,311.69c0,1.04-.84,1.88-1.88,1.88s-1.88-.84-1.88-1.88.84-1.88,1.88-1.88,1.88.84,1.88,1.88Z"/>
      </g>
      <g>
        <path d="M273.36,243.73c0,1.04-.84,1.88-1.88,1.88s-1.88-.84-1.88-1.88.84-1.88,1.88-1.88,1.88.84,1.88,1.88Z"/>
        <path d="M282.56,243.73c0,1.04-.84,1.88-1.88,1.88s-1.88-.84-1.88-1.88.84-1.88,1.88-1.88,1.88.84,1.88,1.88Z"/>
        <path d="M291.75,243.73c0,1.04-.84,1.88-1.88,1.88s-1.88-.84-1.88-1.88.84-1.88,1.88-1.88,1.88.84,1.88,1.88Z"/>
        <path d="M300.95,243.73c0,1.04-.84,1.88-1.88,1.88s-1.88-.84-1.88-1.88.84-1.88,1.88-1.88,1.88.84,1.88,1.88Z"/>
        <path d="M319.35,243.73c0,1.04-.84,1.88-1.88,1.88s-1.88-.84-1.88-1.88.84-1.88,1.88-1.88,1.88.84,1.88,1.88Z"/>
        <path d="M310.15,243.73c0,1.04-.84,1.88-1.88,1.88s-1.88-.84-1.88-1.88.84-1.88,1.88-1.88,1.88.84,1.88,1.88Z"/>
      </g>
      <g>
        <path d="M273.36,259.59c0,1.04-.84,1.88-1.88,1.88s-1.88-.84-1.88-1.88.84-1.88,1.88-1.88,1.88.84,1.88,1.88Z"/>
        <path d="M282.56,259.59c0,1.04-.84,1.88-1.88,1.88s-1.88-.84-1.88-1.88.84-1.88,1.88-1.88,1.88.84,1.88,1.88Z"/>
        <path d="M291.75,259.59c0,1.04-.84,1.88-1.88,1.88s-1.88-.84-1.88-1.88.84-1.88,1.88-1.88,1.88.84,1.88,1.88Z"/>
        <path d="M300.95,259.59c0,1.04-.84,1.88-1.88,1.88s-1.88-.84-1.88-1.88.84-1.88,1.88-1.88,1.88.84,1.88,1.88Z"/>
        <path d="M319.35,259.59c0,1.04-.84,1.88-1.88,1.88s-1.88-.84-1.88-1.88.84-1.88,1.88-1.88,1.88.84,1.88,1.88Z"/>
        <path d="M310.15,259.59c0,1.04-.84,1.88-1.88,1.88s-1.88-.84-1.88-1.88.84-1.88,1.88-1.88,1.88.84,1.88,1.88Z"/>
      </g>
      <g>
        <path d="M273.36,275.45c0,1.04-.84,1.88-1.88,1.88s-1.88-.84-1.88-1.88.84-1.88,1.88-1.88,1.88.84,1.88,1.88Z"/>
        <path d="M282.56,275.45c0,1.04-.84,1.88-1.88,1.88s-1.88-.84-1.88-1.88.84-1.88,1.88-1.88,1.88.84,1.88,1.88Z"/>
        <path d="M291.75,275.45c0,1.04-.84,1.88-1.88,1.88s-1.88-.84-1.88-1.88.84-1.88,1.88-1.88,1.88.84,1.88,1.88Z"/>
        <path d="M300.95,275.45c0,1.04-.84,1.88-1.88,1.88s-1.88-.84-1.88-1.88.84-1.88,1.88-1.88,1.88.84,1.88,1.88Z"/>
        <path d="M319.35,275.45c0,1.04-.84,1.88-1.88,1.88s-1.88-.84-1.88-1.88.84-1.88,1.88-1.88,1.88.84,1.88,1.88Z"/>
        <path d="M310.15,275.45c0,1.04-.84,1.88-1.88,1.88s-1.88-.84-1.88-1.88.84-1.88,1.88-1.88,1.88.84,1.88,1.88Z"/>
      </g>
      <g>
        <g>
          <rect class="st2" x="153.39" y="325.87" width="13.05" height="48.1"/>
          <rect class="st2" x="196.33" y="325.87" width="7.97" height="48.1"/>
          <rect class="st2" x="186.82" y="325.87" width="2.57" height="48.1"/>
          <rect class="st2" x="190.8" y="325.87" width="2.57" height="48.1"/>
          <rect class="st2" x="167.91" y="325.87" width="17.05" height="48.1"/>
          <rect class="st2" x="235.67" y="325.87" width="7.97" height="48.1"/>
          <rect class="st2" x="257.42" y="325.87" width="7.97" height="48.1"/>
          <rect class="st2" x="246.25" y="325.87" width="3.76" height="48.1"/>
          <rect class="st2" x="226.17" y="325.87" width="2.57" height="48.1"/>
          <rect class="st2" x="230.15" y="325.87" width="2.57" height="48.1"/>
          <rect class="st2" x="252.1" y="325.87" width="2.57" height="48.1"/>
          <rect class="st2" x="207.25" y="325.87" width="17.05" height="48.1"/>
        </g>
        <g>
          <rect class="st2" x="257.09" y="325.87" width="13.05" height="48.1"/>
          <rect class="st2" x="300.02" y="325.87" width="7.97" height="48.1"/>
          <rect class="st2" x="290.52" y="325.87" width="2.57" height="48.1"/>
          <rect class="st2" x="294.49" y="325.87" width="2.57" height="48.1"/>
          <rect class="st2" x="271.6" y="325.87" width="17.05" height="48.1"/>
          <rect class="st2" x="339.37" y="325.87" width="7.97" height="48.1"/>
          <rect class="st2" x="361.11" y="325.87" width="7.97" height="48.1"/>
          <rect class="st2" x="349.95" y="325.87" width="3.76" height="48.1"/>
          <rect class="st2" x="329.86" y="325.87" width="2.57" height="48.1"/>
          <rect class="st2" x="333.84" y="325.87" width="2.57" height="48.1"/>
          <rect class="st2" x="355.79" y="325.87" width="2.57" height="48.1"/>
          <rect class="st2" x="310.95" y="325.87" width="17.05" height="48.1"/>
        </g>
      </g>
      <path class="st13" d="M420.21,368.32l-13.71-15-14.19,15-13.71-15-14.19,15-13.71-15-14.19,15-13.71-15-14.19,15-13.71-15-14.19,15-13.71-15-14.19,15-13.71-15-14.19,15-14.22-15.55h-.57c0,38.48-18.85,62.57-41.69,62.57h220.52c41.58,0,44.06-50.06,44.12-60.62l-12.87,13.61Z"/>
      <polygon points="343.4 125.25 338.89 125.25 342.37 122.38 341.73 121.61 337.99 124.69 337.99 119.84 336.99 119.84 336.99 124.35 334.13 120.87 333.35 121.5 336.43 125.25 331.58 125.25 331.58 126.25 336.09 126.25 332.61 129.11 333.24 129.88 336.99 126.8 336.99 131.65 337.99 131.65 337.99 127.14 340.85 130.63 341.63 129.99 338.55 126.25 343.4 126.25 343.4 125.25"/>
      <polygon points="166.49 187.2 161.98 187.2 165.46 184.34 164.83 183.57 161.08 186.65 161.08 181.8 160.08 181.8 160.08 186.31 157.22 182.82 156.44 183.46 159.52 187.2 154.67 187.2 154.67 188.2 159.18 188.2 155.7 191.07 156.34 191.84 160.08 188.76 160.08 193.61 161.08 193.61 161.08 189.1 163.94 192.58 164.72 191.95 161.64 188.2 166.49 188.2 166.49 187.2"/>
      <polygon points="188.77 187.2 184.26 187.2 187.74 184.34 187.11 183.57 183.36 186.65 183.36 181.8 182.36 181.8 182.36 186.31 179.5 182.82 178.73 183.46 181.8 187.2 176.96 187.2 176.96 188.2 181.47 188.2 177.98 191.07 178.62 191.84 182.36 188.76 182.36 193.61 183.36 193.61 183.36 189.1 186.23 192.58 187 191.95 183.92 188.2 188.77 188.2 188.77 187.2"/>
      <polygon points="211.05 187.2 206.54 187.2 210.02 184.34 209.39 183.57 205.64 186.65 205.64 181.8 204.64 181.8 204.64 186.31 201.78 182.82 201.01 183.46 204.09 187.2 199.24 187.2 199.24 188.2 203.75 188.2 200.26 191.07 200.9 191.84 204.64 188.76 204.64 193.61 205.64 193.61 205.64 189.1 208.51 192.58 209.28 191.95 206.2 188.2 211.05 188.2 211.05 187.2"/>
      <polygon points="233.33 187.2 228.82 187.2 232.31 184.34 231.67 183.57 227.93 186.65 227.93 181.8 226.93 181.8 226.93 186.31 224.06 182.82 223.29 183.46 226.37 187.2 221.52 187.2 221.52 188.2 226.03 188.2 222.55 191.07 223.18 191.84 226.93 188.76 226.93 193.61 227.93 193.61 227.93 189.1 230.79 192.58 231.56 191.95 228.48 188.2 233.33 188.2 233.33 187.2"/>
      <polygon points="255.61 187.2 251.1 187.2 254.59 184.34 253.95 183.57 250.21 186.65 250.21 181.8 249.21 181.8 249.21 186.31 246.34 182.82 245.57 183.46 248.65 187.2 243.8 187.2 243.8 188.2 248.31 188.2 244.83 191.07 245.46 191.84 249.21 188.76 249.21 193.61 250.21 193.61 250.21 189.1 253.07 192.58 253.84 191.95 250.77 188.2 255.61 188.2 255.61 187.2"/>
      <polygon points="277.89 187.2 273.38 187.2 276.87 184.34 276.23 183.57 272.49 186.65 272.49 181.8 271.49 181.8 271.49 186.31 268.63 182.82 267.85 183.46 270.93 187.2 266.08 187.2 266.08 188.2 270.59 188.2 267.11 191.07 267.74 191.84 271.49 188.76 271.49 193.61 272.49 193.61 272.49 189.1 275.35 192.58 276.13 191.95 273.05 188.2 277.89 188.2 277.89 187.2"/>
      <polygon points="300.18 187.2 295.67 187.2 299.15 184.34 298.52 183.57 294.77 186.65 294.77 181.8 293.77 181.8 293.77 186.31 290.91 182.82 290.13 183.46 293.21 187.2 288.36 187.2 288.36 188.2 292.87 188.2 289.39 191.07 290.02 191.84 293.77 188.76 293.77 193.61 294.77 193.61 294.77 189.1 297.63 192.58 298.41 191.95 295.33 188.2 300.18 188.2 300.18 187.2"/>
      <polygon points="322.46 187.2 317.95 187.2 321.43 184.34 320.8 183.57 317.05 186.65 317.05 181.8 316.05 181.8 316.05 186.31 313.19 182.82 312.41 183.46 315.49 187.2 310.65 187.2 310.65 188.2 315.16 188.2 311.67 191.07 312.31 191.84 316.05 188.76 316.05 193.61 317.05 193.61 317.05 189.1 319.91 192.58 320.69 191.95 317.61 188.2 322.46 188.2 322.46 187.2"/>
      <polygon points="344.74 187.2 340.23 187.2 343.71 184.34 343.08 183.57 339.33 186.65 339.33 181.8 338.33 181.8 338.33 186.31 335.47 182.82 334.7 183.46 337.77 187.2 332.93 187.2 332.93 188.2 337.44 188.2 333.95 191.07 334.59 191.84 338.33 188.76 338.33 193.61 339.33 193.61 339.33 189.1 342.2 192.58 342.97 191.95 339.89 188.2 344.74 188.2 344.74 187.2"/>
      <polygon points="367.02 187.2 362.51 187.2 365.99 184.34 365.36 183.57 361.61 186.65 361.61 181.8 360.61 181.8 360.61 186.31 357.75 182.82 356.98 183.46 360.06 187.2 355.21 187.2 355.21 188.2 359.72 188.2 356.23 191.07 356.87 191.84 360.61 188.76 360.61 193.61 361.61 193.61 361.61 189.1 364.48 192.58 365.25 191.95 362.17 188.2 367.02 188.2 367.02 187.2"/>
      <polygon points="190.11 125.25 185.6 125.25 189.09 122.38 188.45 121.61 184.71 124.69 184.71 119.84 183.71 119.84 183.71 124.35 180.84 120.87 180.07 121.5 183.15 125.25 178.3 125.25 178.3 126.25 182.81 126.25 179.33 129.11 179.96 129.88 183.71 126.8 183.71 131.65 184.71 131.65 184.71 127.14 187.57 130.63 188.34 129.99 185.26 126.25 190.11 126.25 190.11 125.25"/>
      <g>
        <text class="st8" transform="translate(205.72 241.85) rotate(28.03) scale(.98 1)"><tspan x="0" y="0">PAGO</tspan></text>
        <rect class="st4" x="199.88" y="228.68" width="129.47" height="58.07" rx="10.77" ry="10.77" transform="translate(152.17 -94.13) rotate(28.03)"/>
      </g>
      <text/>
    </g>
  </g>
</svg>
